<mxfile host="app.diagrams.net" modified="2024-08-21T06:35:40.250Z" agent="Mozilla/5.0 (Windows NT 10.0; Win64; x64) AppleWebKit/537.36 (KHTML, like Gecko) Chrome/126.0.0.0 Safari/537.36 OPR/112.0.0.0 (Edition Yx GX 03)" version="24.4.0" etag="M160WodSU0KvXd5fQ2Io" type="github">
  <diagram name="Страница — 1" id="UnULc65Ka1XJ230ib1Ub">
    <mxGraphModel>
      <root>
        <mxCell id="0" />
        <mxCell id="1" parent="0" />
      </root>
    </mxGraphModel>
  </diagram>
</mxfile>
